<?xml version="1.0" encoding="iso-8859-1"?>
<!-- Generator: Adobe Illustrator 19.0.0, SVG Export Plug-In . SVG Version: 6.00 Build 0)  -->
<svg version="1.1" id="Capa_1" xmlns="http://www.w3.org/2000/svg" xmlns:xlink="http://www.w3.org/1999/xlink" x="0px" y="0px"
	 viewBox="0 0 512 512" style="enable-background:new 0 0 512 512;" xml:space="preserve">
<g>
	<g>
		<path d="M496,288h-48v-96c0-35.296-28.704-64-64-64H160V80c0-8.832-7.168-16-16-16H16C7.168,64,0,71.168,0,80v128
			c0,8.832,7.168,16,16,16h128c8.832,0,16-7.168,16-16v-48h32c17.664,0,32,14.336,32,32v96h-48c-8.832,0-16,7.168-16,16v128
			c0,8.832,7.168,16,16,16h128c8.832,0,16-7.168,16-16V304c0-8.832-7.168-16-16-16h-48v-96c0-11.712-3.392-22.56-8.896-32H384
			c17.664,0,32,14.336,32,32v96h-48c-8.832,0-16,7.168-16,16v128c0,8.832,7.168,16,16,16h128c8.832,0,16-7.168,16-16V304
			C512,295.168,504.832,288,496,288z M128,192H32V96h96V192z M288,320v96h-96v-96H288z M480,416h-96v-96h96V416z"/>
	</g>
</g>
<g>
</g>
<g>
</g>
<g>
</g>
<g>
</g>
<g>
</g>
<g>
</g>
<g>
</g>
<g>
</g>
<g>
</g>
<g>
</g>
<g>
</g>
<g>
</g>
<g>
</g>
<g>
</g>
<g>
</g>
</svg>
