<?xml version="1.0" encoding="iso-8859-1"?>
<!-- Generator: Adobe Illustrator 19.0.0, SVG Export Plug-In . SVG Version: 6.00 Build 0)  -->
<svg version="1.1" id="Capa_1" xmlns="http://www.w3.org/2000/svg" xmlns:xlink="http://www.w3.org/1999/xlink" x="0px" y="0px"
	 viewBox="0 0 512.008 512.008" style="enable-background:new 0 0 512.008 512.008;" xml:space="preserve">
<g>
	<g>
		<path d="M508.384,245.86l-144-175.968c-3.04-3.744-7.584-5.888-12.384-5.888H224c-6.176,0-11.808,3.552-14.464,9.152
			c-2.624,5.568-1.856,12.192,2.08,16.96l135.712,165.888l-135.68,165.888c-3.936,4.768-4.704,11.392-2.08,16.992
			c2.624,5.568,8.256,9.12,14.432,9.12h128c4.8,0,9.344-2.144,12.384-5.888l144-176C513.216,260.228,513.216,251.748,508.384,245.86
			z M344.416,416.004H257.76l122.624-149.888c4.832-5.888,4.832-14.368,0-20.256L257.76,96.004h86.656l130.912,160L344.416,416.004z
			"/>
	</g>
</g>
<g>
	<g>
		<path d="M300.384,245.86l-144-176c-3.04-3.712-7.584-5.856-12.384-5.856H16c-6.176,0-11.808,3.552-14.464,9.152
			c-2.624,5.568-1.856,12.192,2.08,16.96l135.712,165.888L3.648,421.892c-3.968,4.768-4.736,11.392-2.112,16.96
			c2.656,5.6,8.288,9.152,14.464,9.152h128c4.8,0,9.344-2.144,12.384-5.888l144-176C305.216,260.228,305.216,251.748,300.384,245.86
			z M136.416,416.004H49.76l122.624-149.888c4.832-5.888,4.832-14.368,0-20.256L49.76,96.004h86.656l130.912,160L136.416,416.004z"
			/>
	</g>
</g>
<g>
</g>
<g>
</g>
<g>
</g>
<g>
</g>
<g>
</g>
<g>
</g>
<g>
</g>
<g>
</g>
<g>
</g>
<g>
</g>
<g>
</g>
<g>
</g>
<g>
</g>
<g>
</g>
<g>
</g>
</svg>
