<?xml version="1.0" encoding="iso-8859-1"?>
<!-- Generator: Adobe Illustrator 19.0.0, SVG Export Plug-In . SVG Version: 6.00 Build 0)  -->
<svg version="1.1" id="Capa_1" xmlns="http://www.w3.org/2000/svg" xmlns:xlink="http://www.w3.org/1999/xlink" x="0px" y="0px"
	 viewBox="0 0 511.982 511.982" style="enable-background:new 0 0 511.982 511.982;" xml:space="preserve">
<g>
	<g>
		<path d="M510.752,233.879c-2.432-5.984-8.288-9.888-14.752-9.888h-50.368c-15.52-110.272-108.832-192-221.632-192
			c-123.52,0-224,100.48-224,224s100.48,224,224,224c60.384,0,116.64-23.52,158.336-66.272c6.144-6.304,6.048-16.384-0.224-22.56
			l-45.44-44.8c-6.304-6.208-16.416-6.112-22.624,0.128c-23.872,24.192-55.872,37.504-90.048,37.504c-70.592,0-128-57.408-128-128
			s57.408-128,128-128c59.936,0,109.408,39.424,123.616,96H304c-6.464,0-12.32,3.904-14.784,9.888
			c-2.496,5.984-1.12,12.832,3.456,17.44l96,96c6.24,6.24,16.384,6.24,22.624,0l96-96
			C511.872,246.743,513.248,239.863,510.752,233.879z M400,313.367l-57.376-57.376h24.096c4.576,0,8.896-1.952,11.936-5.344
			c3.04-3.392,4.48-7.936,3.968-12.448C373.44,157.143,305.28,95.991,224,95.991c-88.224,0-160,71.776-160,160s71.776,160,160,160
			c37.408,0,72.704-12.736,101.024-36.16l22.816,22.496c-34.144,29.568-77.568,45.664-123.84,45.664c-105.888,0-192-86.112-192-192
			s86.112-192,192-192c100.064,0,182.24,75.04,191.36,176c0,8.832,7.168,16,16,16h26.016L400,313.367z"/>
	</g>
</g>
<g>
</g>
<g>
</g>
<g>
</g>
<g>
</g>
<g>
</g>
<g>
</g>
<g>
</g>
<g>
</g>
<g>
</g>
<g>
</g>
<g>
</g>
<g>
</g>
<g>
</g>
<g>
</g>
<g>
</g>
</svg>
