<?xml version="1.0" encoding="iso-8859-1"?>
<!-- Generator: Adobe Illustrator 19.0.0, SVG Export Plug-In . SVG Version: 6.00 Build 0)  -->
<svg version="1.1" id="Capa_1" xmlns="http://www.w3.org/2000/svg" xmlns:xlink="http://www.w3.org/1999/xlink" x="0px" y="0px"
	 viewBox="0 0 469.333 469.333" style="enable-background:new 0 0 469.333 469.333;" xml:space="preserve">
<g>
	<g>
		<path d="M458.667,0h-448C4.779,0,0,4.779,0,10.667v106.667C0,123.221,4.779,128,10.667,128s10.667-4.779,10.667-10.667
			c0-17.643,14.357-32,32-32H192V416c0,17.643-14.357,32-32,32c-5.888,0-10.667,4.779-10.667,10.667
			c0,5.888,4.779,10.667,10.667,10.667h149.333c0.171,0,0.341,0,0.427,0c5.888,0,10.667-4.779,10.667-10.667
			c0-5.888-4.779-10.667-10.667-10.667h-0.213c-0.043,0-0.128,0-0.213,0c-17.643,0-32-14.357-32-32V85.333H416
			c17.643,0,32,14.357,32,32c0,5.888,4.779,10.667,10.667,10.667c5.888,0,10.667-4.779,10.667-10.667V10.667
			C469.333,4.779,464.555,0,458.667,0z M448,74.688C439.083,67.989,428.011,64,416,64H266.667C260.779,64,256,68.779,256,74.667V416
			c0,11.989,3.989,23.083,10.688,32h-64.043c6.699-8.917,10.688-20.011,10.688-32V74.667c0-5.888-4.779-10.667-10.667-10.667H53.333
			c-11.989,0-23.083,3.968-32,10.688V21.333H448V74.688z"/>
	</g>
</g>
<g>
</g>
<g>
</g>
<g>
</g>
<g>
</g>
<g>
</g>
<g>
</g>
<g>
</g>
<g>
</g>
<g>
</g>
<g>
</g>
<g>
</g>
<g>
</g>
<g>
</g>
<g>
</g>
<g>
</g>
</svg>
